<svg xmlns="http://www.w3.org/2000/svg" viewBox="0 0 19.48 16"><defs><style>.cls-1{fill:#d62727}</style></defs><title>Ресурс 4</title><g id="Слой_2" data-name="Слой 2"><g id="Слой_1-2" data-name="Слой 1"><path d="M9.74 16a1 1 0 0 1-.56-.17A75.68 75.68 0 0 1 2 10.46a6.65 6.65 0 0 1-2-4.39 5.55 5.55 0 0 1 4.3-6 5.38 5.38 0 0 1 5.44 2.19A5.38 5.38 0 0 1 15.17.1a5.55 5.55 0 0 1 4.3 6 6.65 6.65 0 0 1-2 4.39 76.34 76.34 0 0 1-7.15 5.37 1 1 0 0 1-.58.14zM5.16 1.54A3.85 3.85 0 0 0 1.53 4 5.14 5.14 0 0 0 2 8c1.29 2.21 1.42 2.71 7.71 6.46A28.45 28.45 0 0 0 17.41 8c.79-1.12.59-3 .59-3.58a3.57 3.57 0 0 0-3.37-3c-1.86-.17-3.89 1.58-3.89 2.91 0 .38-.45.69-1 .69s-1-.31-1-.69C8.74 3 7 1.54 5.16 1.54z"/><path class="cls-1" d="M.78 5.63A5.72 5.72 0 0 0 2.62 10c1.47 1.38 6.33 4.49 6.51 4.67a1.36 1.36 0 0 0 .55.17 1.36 1.36 0 0 0 .55-.17c.18-.17 5-3.2 6.51-4.67a5.72 5.72 0 0 0 1.83-4.41 4.8 4.8 0 0 0-5-4.67 5 5 0 0 0-3.85 2 5 5 0 0 0-4-2A4.85 4.85 0 0 0 .78 5.63z"/></g></g></svg>