<svg xmlns="http://www.w3.org/2000/svg" viewBox="0 0 63.99 61"><defs><style>.cls-1,.cls-2{fill-rule:evenodd}.cls-2{fill:#900}</style></defs><title>Ресурс 1</title><g id="Слой_2" data-name="Слой 2"><g id="Слой_1-2" data-name="Слой 1"><path d="M13.73 12.86c.45.13.45 1.42.45 1.42a6.82 6.82 0 0 0-4.37 4.06 10 10 0 0 0-.58 6 1.56 1.56 0 0 1-2.23.13s-1.41-2.9 1.09-7.29 5.19-4.45 5.64-4.32z"/><path class="cls-1" d="M62 10.28c4.75 10.9-.19 19.49-3 23.49S46.74 46 42.43 51a36.23 36.23 0 0 0-5.9 9.48c-.39.58-2.57.71-3 .19a20.3 20.3 0 0 0-8.15-11C19 45.51 10.64 41.25 5.64 36.15s-6.68-11.23-5-19 8.08-11.45 13.15-13 12.59 1.09 13.74 1.93l2.06 1.48A14.22 14.22 0 0 1 40.25.4C47.89-.57 57.27-.63 62 10.28zm-.83 14.39c.06-.2.12-4.39-.39-5s-4.88-2.71-5-2.91 0-1.16.26-1.16 4.37 1.87 4.37 1.87-.39-3.29-1-4c0 0-2.44-.77-3.15-.9a7 7 0 0 0-1.15-.13l-.11-.62 3.21-.25s-.45-2.07-.9-2.13a15.27 15.27 0 0 0-2.57.45s-.58-1-.32-1.1S56.5 8 56.5 8 55 5.05 50.27 3.37s-12.33-.13-14.83 1.74a11.7 11.7 0 0 0-3.86 6 12 12 0 0 0-.13 1.68s-2.18.71-2.57.45S27 9.31 22.59 7.69 10.77 5.44 6 12a17.13 17.13 0 0 0 3.28 23c7.25 5.68 14 8.19 18.36 11.94s7.2 6.84 7.58 9.68c.08.55 1.29-2.58 1.29-2.58s-3.92-8.39-3.92-8.59.51-1.09.77-.84 3.85 8.2 4.17 8 1.74-1.49 1.67-1.75-3.79-7.74-3.79-7.93 1.29-1 1.29-1l3.72 7.68 2.31-2.58-3.63-8.17 1.15-.9s3 8.07 3.47 7.81a26.66 26.66 0 0 0 2.38-2.52s-3.34-7.48-3.28-7.68a7.11 7.11 0 0 1 1.48-.84l3.14 7.75L49.63 40s-3.6-6.65-3.47-7.1 1-1.29 1.16-1 2.82 7.49 3.27 7.29 2.18-1.55 1.93-1.93-4.11-7.1-4-7.36 1-1 1.15-.77 3.66 7 3.86 7a17 17 0 0 0 1.79-2s-4.17-6.58-4.3-7 .45-1 .71-1 4.2 6.84 4.49 6.84a26 26 0 0 0 2.12-3l-5-6s.45-1.16.71-.91 4.37 6 4.82 5.88 1.73-2.65 1.73-2.65-5.39-5.74-5.39-5.94.51-1.09.77-.9 5.14 5.41 5.21 5.22z"/><path class="cls-2" d="M60.8 19.7c.51.58.45 4.77.39 5s-4.88-5-5.14-5.23-.77.71-.77.9 5.39 5.94 5.39 5.94-1.28 2.52-1.73 2.65-4.56-5.62-4.82-5.88-.71.91-.71.91l5 6a26 26 0 0 1-2.12 3c-.29 0-4.24-6.78-4.49-6.84s-.84.51-.71 1 4.3 7 4.3 7a17 17 0 0 1-1.79 2c-.2 0-3.66-6.78-3.86-7s-1 .51-1.15.77 3.72 7 4 7.36-1.59 1.65-2 1.84-3.08-7-3.27-7.29-1 .58-1.16 1S49.63 40 49.63 40l-2.19 2.52-3.14-7.79a7.11 7.11 0 0 0-1.48.84c-.06.2 3.28 7.68 3.28 7.68a26.66 26.66 0 0 1-2.38 2.52C43.27 46 40.25 38 40.25 38l-1.15.9 3.59 8.07-2.31 2.58-3.72-7.68s-1.29.84-1.29 1 3.73 7.68 3.79 7.93-1.35 1.55-1.67 1.75-3.92-7.75-4.17-8-.77.65-.77.84S36.47 54 36.47 54s-1.21 3.13-1.29 2.58c-.38-2.84-3.21-5.94-7.58-9.68S16.49 40.61 9.24 34.93A17.13 17.13 0 0 1 6 12c4.81-6.51 12.2-5.87 16.63-4.26s5.91 5.3 6.29 5.55 2.57-.45 2.57-.45a12 12 0 0 1 .13-1.68 11.7 11.7 0 0 1 3.86-6c2.5-1.87 10.08-3.42 14.83-1.74S56.5 8 56.5 8s-1.86.78-2.12.84.32 1.1.32 1.1a15.27 15.27 0 0 1 2.57-.45c.45.06.9 2.13.9 2.13l-3.17.2.13.65a7 7 0 0 1 1.15.13c.71.13 3.15.9 3.15.9.64.71 1 4 1 4s-4.12-1.87-4.43-1.87-.39 1-.26 1.16 4.55 2.33 5.06 2.91zm-46.62-5.42s0-1.29-.45-1.42-3.09-.07-5.59 4.32S7 24.47 7 24.47a1.56 1.56 0 0 0 2.18-.13 10 10 0 0 1 .58-6 6.82 6.82 0 0 1 4.42-4.06z"/></g></g></svg>