<svg xmlns="http://www.w3.org/2000/svg" viewBox="0 0 19.46 16"><defs><style>.cls-1{fill:#ed6464}</style></defs><title>Ресурс 7</title><g id="Слой_2" data-name="Слой 2"><g id="Слой_1-2" data-name="Слой 1"><path d="M9.73 16a1 1 0 0 1-.56-.17A75.68 75.68 0 0 1 2 10.46a6.63 6.63 0 0 1-2-3.89A5.62 5.62 0 0 1 5.42 0a5.37 5.37 0 0 1 4.27 2.19.05.05 0 0 0 .09 0A5.37 5.37 0 0 1 14 0a5.62 5.62 0 0 1 5.36 6.56 6.63 6.63 0 0 1-2 3.89 76.34 76.34 0 0 1-7.15 5.37 1 1 0 0 1-.48.18zM5.15 1.54A3.85 3.85 0 0 0 1.52 4 5.14 5.14 0 0 0 2 8c1.29 2.2 1.42 2.71 7.68 6.44a.06.06 0 0 0 .06 0A28.51 28.51 0 0 0 17.4 8c.79-1.12.61-3 .58-3.58a3.57 3.57 0 0 0-3.38-3c-1.84-.17-3.87 1.58-3.87 2.91 0 .38-.45.69-1 .69s-1-.31-1-.69C8.73 3 7 1.54 5.15 1.54z"/><path class="cls-1" d="M.53 5.49A5.74 5.74 0 0 0 2.4 9.95c1.5 1.4 6.47 4.54 6.66 4.72a1.4 1.4 0 0 0 .56.17 1.4 1.4 0 0 0 .56-.17c.19-.17 5.16-3.23 6.66-4.72a5.74 5.74 0 0 0 1.88-4.46A4.88 4.88 0 0 0 13.66.77a5.09 5.09 0 0 0-3.9 2 .05.05 0 0 1-.09 0 5.18 5.18 0 0 0-4.08-2A4.94 4.94 0 0 0 .53 5.49z"/></g></g></svg>