<svg xmlns="http://www.w3.org/2000/svg" viewBox="0 0 18.7 17.93"><defs><style>.cls-1{fill:#e5ac2e}</style></defs><title>Ресурс 1</title><g id="Слой_2" data-name="Слой 2"><path class="cls-1" d="M14.21 17.93a1.51 1.51 0 0 1-.65-.15l-.1-.05-4.11-2.34-4.11 2.35-.11.05a1.52 1.52 0 0 1-1.52-.14A1.5 1.5 0 0 1 3 16.14l1-4.64L2.39 10 .49 8.31l-.08-.08a1.49 1.49 0 0 1 .82-2.5h.1L6 5.19 8 .88V.77a1.5 1.5 0 0 1 2.62 0l.06.11 1.95 4.31 4.7.52h.1a1.5 1.5 0 0 1 .82 2.51l-.08.08-3.5 3.18 1 4.63a1.51 1.51 0 0 1-.59 1.52 1.49 1.49 0 0 1-.87.3zm-8.15-6.56l-.85 4.08 3.64-2.08a1 1 0 0 1 1 0l3.64 2.08-.85-4.1a1 1 0 0 1 .31-.94L16 7.58l-4.17-.46a1 1 0 0 1-.8-.58L9.35 2.71 7.63 6.54a1 1 0 0 1-.8.58l-4.17.46 3.1 2.82a1 1 0 0 1 .3.97z" id="Слой_1-2" data-name="Слой 1"/></g></svg>