<svg xmlns="http://www.w3.org/2000/svg" viewBox="0 0 59.53 62.71"><defs><style>.cls-1{fill-rule:evenodd}</style></defs><title>Ресурс 2</title><g id="Слой_2" data-name="Слой 2"><g id="Слой_1-2" data-name="Слой 1"><path d="M28.11 45c.21.07 1.66 3.62 1.46 4s-.38.54-.51.4a38.2 38.2 0 0 1-1.83-3.74c-.01-.15.68-.72.88-.66zm20.04 9.32c.13.48-.91 1.05-1.08 1s-6.18-4.32-6.29-4.64.44-.88.68-1 6.54 4.17 6.69 4.64zM7 25.25c.85 0 1.18.84.64 1.15s-1.35.27-1.62.84a3.37 3.37 0 0 0 .27 2.2c.24.64.34.67.57.71s.48-.14.71.13-.37 1.59-1.58.88A5.19 5.19 0 0 1 4.32 28c-.16-1.64 1.8-2.72 2.68-2.75z"/><path class="cls-1" d="M58.46 17.62c2.16 2.73.57 6.11-.58 9.08s-5.1 8.92-6 10.13a7.61 7.61 0 0 0-1.35 2.4c0 .34 2.4 7 2.81 10.1s1 7.12-.81 8.81-4.13 2-7.47.3-12.86-8.13-12.86-8.13S25.34 58 21.59 60.5s-5 2.8-7.4 1.25S12 58.48 12 55.2a30.36 30.36 0 0 1 .47-7.29c.51-2.71 1.18-6.12 1.18-6.12S7.77 39 4.39 35.58 0 30.35 0 27.24s2.91-5.13 7-6a54.33 54.33 0 0 1 10.85-.81s0-3 2.26-7.76S24.87 3 25.92 1.82 27.77-.41 30.78.16s3.79 1.59 6.08 5.64 3.62 8.48 4.4 9.83.81 2.06.94 2.06a72 72 0 0 1 7.13-1.42c3.28-.41 6.96-1.39 9.13 1.35zM57.07 22a4.25 4.25 0 0 0-.33-2.6c-.41-.64-.88-1.18-2.67-1.25a40.77 40.77 0 0 0-9.16 1.05c-3.38.81-3.35.91-4.09.91s-1.39-2.5-1.45-2.6-4.8-1.25-5.07-1.31-.2-.92-.07-1 4.46 1.3 4.77 1.34-.37-1.18-.37-1.18-5-2.2-5.14-2.2-.3-.84 0-1.08 4.6 2.06 4.77 2.2a19.13 19.13 0 0 0-.91-2.37s-4.6-1.89-4.84-2-.17-.77 0-1 4 1.79 4.15 1.89S35.55 8 35.55 8s-3.11-1-3.65-1.35-.17-1.28 0-1.28 3.17 1.39 3.17 1.39a16.14 16.14 0 0 0-2.3-3.08 5.4 5.4 0 0 0-3.61-1.48c-2.81.2-7.33 11.48-8.28 14.38s-1.18 5.54-1.76 5.64S11 22.68 8 23.33s-5.64 2-5.57 4.18.94 4 4.19 7.13 8.24 4.93 8.89 5.23.87.81.81 1.86-1.89 5.88-2.16 9.27-.07 6.38.77 8a2.8 2.8 0 0 0 2.71 1.48c.33 0-1.49-3.1-1.59-3.27s.47-.61.74-.54 1.52 3.2 1.66 3.41.57-.17.84-.37-1.65-4.12-1.65-4.26a.69.69 0 0 1 .91-.51c.57.24 1.69 3.89 1.82 4s.88-.78 1.12-1-2.2-5-2.26-5.13.4-.65.71-.61 2.16 4.59 2.33 4.8.87-.68 1.11-1-2.26-4.79-2.53-5 .5-1 .84-1 2.3 5.23 2.44 5.4 1-.88 1.18-1.08-2.47-5.1-2.57-5.3.47-.84.71-.84 2.43 5.33 2.57 5.47 1.18-1.32 1.32-1.39-2.5-5-2.57-5.23.64-.71.91-.71 2.26 5.27 2.26 5.27.51-.48 1.12-1.12 1.45-1.89 1.82-2.23a1.64 1.64 0 0 1 1.59-.37c.88.14 7.13 4.83 11.05 7s6.28 3.44 7.48 1.82.54-4.33-.13-8a36.89 36.89 0 0 0-2.7-8.47c-.38-.51 0-1.86.06-2.06s-3.27-5.17-3.34-5.4a.72.72 0 0 1 .64-.75c.41 0 2.94 5 3.28 5.27s.74-1.15.81-1.42a31.48 31.48 0 0 0-2.8-4.62c-.38-.41.47-1 .81-1s2.56 4.69 2.8 4.76 1-1.21 1.08-1.52-2.36-4.22-2.53-4.69.5-.91.84-.71 2.17 4.16 2.37 4.26.67-1.05.81-1.29-2.6-5.13-2.81-5.47.61-.84.85-.81S53.76 30 53.76 30a14 14 0 0 0 1.08-2 47.19 47.19 0 0 0-2.74-4.76c-.16-.24.44-.92.75-.85s2.5 4.19 2.63 4.26.61-1.56.68-1.79-1.73-3.82-1.76-4.16.57-.67.81-.64a19.76 19.76 0 0 1 1.49 3.14 4.69 4.69 0 0 0 .37-1.2z"/></g></g></svg>