<svg xmlns="http://www.w3.org/2000/svg" viewBox="0 0 18.71 17.94"><defs><style>.cls-1{fill-rule:evenodd}.cls-2{fill:#dbab12}</style></defs><title>Ресурс 2</title><g id="Слой_2" data-name="Слой 2"><g id="Слой_1-2" data-name="Слой 1"><path class="cls-1" d="M18.63 6.75a1.51 1.51 0 0 1-.34 1.49l-.08.08-3.5 3.18 1 4.64a1.54 1.54 0 0 1-.59 1.52 1.51 1.51 0 0 1-.88.28 1.43 1.43 0 0 1-.64-.15l-.11-.05-4.14-2.34-4.11 2.34-.11.05a1.51 1.51 0 0 1-1.52-.14A1.49 1.49 0 0 1 3 16.14l1-4.64L2.38 10 .49 8.32l-.08-.09a1.48 1.48 0 0 1-.34-1.49 1.51 1.51 0 0 1 1.16-1h.1L6 5.19 8 .88V.77A1.5 1.5 0 0 1 9.35 0a1.52 1.52 0 0 1 1.31.77l.06.12 2 4.31 4.7.52h.1a1.5 1.5 0 0 1 1.11 1.03zm-4.89 3.76L17.52 7l-5.08-.58a1.23 1.23 0 0 1-1-.74L9.36.8l-2.1 4.83a1.25 1.25 0 0 1-1 .74L1.21 7 5 10.51a1.29 1.29 0 0 1 .37 1.22c-.05.23-.57 2.84-1 5.16l4.44-2.63a1.17 1.17 0 0 1 1.2 0l4.44 2.62-1-5.18a1.28 1.28 0 0 1 .29-1.19z"/><path class="cls-2" d="M17.52 7l-3.78 3.56a1.28 1.28 0 0 0-.37 1.19l1 5.18L10 14.26a1.17 1.17 0 0 0-1.2 0l-4.48 2.63c.46-2.32 1-4.93 1-5.16A1.29 1.29 0 0 0 5 10.51L1.21 7l5.07-.58a1.25 1.25 0 0 0 1-.74L9.36.8l2.1 4.83a1.23 1.23 0 0 0 1 .74z"/></g></g></svg>