<svg xmlns="http://www.w3.org/2000/svg" viewBox="0 0 1534.29 369.61"><defs><style>.cls-1,.cls-4{fill:#fff;}.cls-2{fill:#c63112;}.cls-3{font-size:295px;font-family:MyriadPro-BoldCond, Myriad Pro;font-weight:700;}.cls-4{letter-spacing:0em;}.cls-5{font-size:284px;}</style></defs><title>Ресурс 2</title><g id="Слой_2" data-name="Слой 2"><g id="Слой_1-2" data-name="Слой 1"><path class="cls-1" d="M313,314.22H0V0H313ZM114,149l9.55,5.23c-.39-7.26,1.05-14.46-1.62-19.46a27.06,27.06,0,0,1-3.26-12.26c-.35-7.94-.27-15.89-.46-23.84,0-1.59,0-4.08-.84-4.6-4.58-2.69-3.36-7.06-3.55-10.9-.26-5-.06-10.12-.06-15.18l-2.19.73c-1.39-2.31-2.88-4.57-4.12-7-.53-1-.31-3.24-.79-3.35-5.14-1.15-3.75-5.33-4.42-8.65-.23-1.12-1.41-2-2.14-3.06s-1.41-2-2.12-3.07c1.22-.73,2.37-1.88,3.68-2.1,3.57-.61,8.67.53,10.55-1.47,5-5.37,10.39-2.36,16.74-3.39-.58,7.05.78,14.25-2.1,18.72-2.74,4.25-3.12,8-3.18,12.13-.14,9.78.1,19.56.35,29.34a17,17,0,0,0,1.38,5.11c.9,2.48,2.71,4.87,2.83,7.37.5,10.17.35,20.38.84,30.55a5.73,5.73,0,0,0,3.51,4.15c2.61.54,5.34-.2,5.19-4.09A68.63,68.63,0,0,1,138,132c.2-2.61,0-7.18,1-7.5,8-2.52,4-9,5.19-13.73.64-2.62.72-5.72,2.22-7.72,2.38-3.19,3-10.87,1-14.38-1.8-3.15-2.59-6.87-4.18-11.35H162l6.1,8.66c-2.65,2.39-6.13,4.39-7.92,7.4-2.56,4.31-7.79,7.59-6.18,14,.44,1.76-.08,5.27-1,5.62-4.7,1.75-3.2,5.54-3.59,8.71-.41,3.41.58,8.35-1.32,10-6.67,5.75-2.29,12.87-3.55,19.16-.13.65,1.27,1.73,2.15,2.36.19.14,1.61-.74,1.7-1.27.63-3.69,4-6.47,4.84-9,2.37-7.16,11.31-9.44,11.61-17.85.08-2.22,4.09-4.37,6.4-6.43,2.62-2.34,7.23-4.23,7.69-6.89C180,105,183.64,100.86,188.74,97c2.21-1.65,4.47-4.3,5.07-6.87,2.08-9,3.45-18.25,5.09-27.4l2.19-1.15c2.23,1.69,4.34,4.62,6.72,4.86,7.75.78,10.14,8.82,16.5,11.32.59.23.87,3.84.18,4.35a94.84,94.84,0,0,1-10.4,6.18c-.84.46-2.66.35-2.75.77-1,4.8-4.89,3.82-8.07,4.35-1,.16-2.23.34-2.73,1-3.7,4.77-7.33,9.59-10.79,14.54-2.16,3.08-3.32,7.21-6.08,9.44-4.73,3.82-8.58,7.79-9.2,12.1-2.65,2.79-4.21,4.4-5.74,6-2.63,2.84-5.66,5.42-7.69,8.64-1.35,2.13-1.25,5.17-1.81,7.81,2.89.1,8,.93,8.3.17,1.6-4.91,5.51-3.76,8.82-4.42a9.59,9.59,0,0,0,2.93-1.53c1.62-1,3.25-2,4.78-3.18,1.72-1.28,3.36-2.66,5-4,.69-.59,1.23-1.36,1.94-1.92,4.64-3.66,9.48-7.08,13.89-11,2.79-2.48,4.94-5.69,8.49-9.88,1.33,4.86,1.32,9.66,3.11,10.46,5.56,2.5,3.17,6.51,3.8,10.64-5.4-.39-8.75,2.34-12.77,4.86-4.55,2.86-12-.3-16.36,5.62-.5.69-2.41.2-3.5.65a17,17,0,0,0-3,2.14A19.33,19.33,0,0,1,181.1,154c-5.12,2.11-10.38,3.88-15.43,6.14a22.22,22.22,0,0,0-5.64,4.32,3,3,0,0,0-.63,2.67,2.91,2.91,0,0,0,2.24,1.36c3.46.13,6.93.09,10.39,0,3.85-.13,9.3,1.1,11.21-.93,4.17-4.43,8.82-3.39,13.42-3.64,7.52-.4,15.08-.28,22.61-.47,1.59,0,4.13.09,4.61-.76,2.45-4.41,6.65-2.8,10.18-3.74,5.47-1.46,12.57-2.27,15.6-6.06,4.29-5.37,8.68-3.67,13.29-3.65,1.17,0,3.28,1.95,3.33,3.06.3,7.46.16,14.94.16,23.79-7.33-3.43-16.52,3.7-21.59-6.48-.13-.26-.72-.39-1.1-.39-8.55.05-17.1.11-25.66.23-.55,0-1.45.39-1.57.78-2,6.44-7.4,4.37-11.66,4.62-6.5.39-13,.25-19.56.38-1.41,0-3.58-.29-4.11.46-4,5.61-9.9,3.33-15.05,4.12-2.29.35-4.54,1-6.8,1.44l.16,2.23c2.66.32,5.31.67,8,1,2.22.24,5.78-.4,6.45.72,3.6,6,9.34,3.44,14.2,4.3,2,.34,5.2.3,5.59,1.31,1.68,4.36,5.19,3.37,8.19,3.42,9.12.17,18.24.06,27.44.06l-5.82,20.9c-1.63-.17-4.49.39-5.87-.79-4.56-3.88-8.55-8.41-12.83-12.63a6.19,6.19,0,0,0-2.83-1.84c-6.76-1.24-13.77.78-20.26-4.66-3.1-2.6-9.83-1-14.91-1-1,0-2.25,1.29-2.78,2.3-.23.44,1,1.75,1.72,2.55,1.5,1.7,3.08,3.33,4.63,5,2.46,1.75,4.49,5.18,6.88,5.45,7.9.89,11.25,7.94,16.79,11.77,4.41,3.05,7.45,8.07,13.52,8.82a3.35,3.35,0,0,1,2.29,1.52c2.91,6.07,7.21,9.74,14.37,9.29,1.55-.1,4.18.17,4.54,1,2,4.66,6,3.19,9.4,3.61,2.36.3,4.76.31,7.49.48-.48,4.11,2.32,8-3.74,10.39-3,1.19-4.51,6.19-6.81,9.62-1.47,1.25-3,3-4.88,4a12.1,12.1,0,0,1-4.91.68c-.81-4.52-7.26-6.48-5.57-12.1.2-.66-.2-2.14-.54-2.21-5.39-1.17-3.77-5.81-5-10.28-4-1.71-8.8-3.37-13.17-5.83-2.6-1.46-4.59-4.09-6.67-6.36-2.5-2.73-4.34-7.32-7.29-8.14-8.46-2.34-12.78-9.37-19-14.23-2.92-2.29-6.31-4-9.39-6.06-1.74-1.18-3.19-2.8-5-3.92-1-.65-2.45-.7-3.69-1a83.91,83.91,0,0,0,1.38,9.29c.4,1.57,2,2.81,2.76,4.33s1,3.53,2,4.83c2.15,2.68,5.53,4.65,6.93,7.6,2.78,5.85,4.56,12.18,6.71,18.21,4.68,2.4,9.35,4.64,13.84,7.17a14.82,14.82,0,0,1,4.41,4c.65.87.8,3.37.46,3.51-4.33,1.89-5.22,9.21-11.81,7.54-.4-.1-1,1-1.64,1.43-1.69,1.15-3.43,2.24-5.13,3.33a16.13,16.13,0,0,1-1.1-1.86c-1.82-8.85-3.6-17.72-5.49-26.55-.18-.82-1-1.49-1.55-2.26-1.06-1.6-2.4-3.1-3-4.85-.89-2.42-.4-4.66-3.6-6.78s-4.6-7.42-6.2-11.55c-1.23-3.19-6.9-7.65-10.52-7,.29,3.72-1.65,8,4,10,1,.33,1.42,3.18,1.48,4.89.31,9.37.37,18.74.65,28.11a20.61,20.61,0,0,0,1.15,5.81c.9,2.68,2.72,5.17,3.05,7.88.6,4.83.26,9.77.58,14.65.09,1.36,1,2.7,1.74,4,.89,1.6,2.84,3.18,2.75,4.67-.36,5.75,4.76,7.76,7.4,11.3a11.3,11.3,0,0,0,7.82,4c23.64.31,47.28.2,70.92.13a17,17,0,0,0,5.18-1c2.88-1,5.6-2.57,8.53-3.14,3.76-.73,7.89,0,11.43-1.22,3.29-1.11,6-3.92,9-6a33.63,33.63,0,0,0,5.63-4.39c2.09-2,4-4.13,6.1-6.17,3-3,6.07-5.82,9-8.86a8.57,8.57,0,0,0,1.8-3.5c.44-1.55,0-4.21.82-4.64,6.56-3.38,4.33-9.5,4.36-14.42q.5-90.18.5-180.36c0-6.92-.43-13.85-.72-20.77-.06-1.4,0-3-.64-4.13-1.78-3.14-3.91-6.08-6.62-10.19L274.5,17.46c-2.06-1.43-4.88-2.21-7.58-3.3-2-.78-3.64-2.33-5.63-2.87-3.25-.88-6.71-1-10-1.86-2.46-.65-4.75-2.85-7.12-2.86q-88-.25-176.09-.13c-1.61,0-4.13-.33-4.69.51-3.55,5.34-9,3.91-13.81,4.09-6.48.24-10.35,3.69-13.4,8.88-.57,1-2.14,1.39-3.31,1.94C31.3,22.63,29.53,23.1,28,24c-5.48,3.16-5.39,10.48-11.4,14.15A14.3,14.3,0,0,0,10.88,53c.31,1.22-.08,3.59-.83,3.93C5.2,59.17,6.5,63.44,6.49,67.06Q6.3,122.7,6.35,178.34c0,1.78.22,3.56.33,5.21,6,2.54,13.61-1.94,16.83,3.92,4.43-1.08,7.83-2.46,11.31-2.65,8.54-.48,17.11-.35,25.66-.62A21.42,21.42,0,0,0,66.32,183c2.86-.93,5.58-2.87,8.44-3.06,8.12-.55,16.29-.36,24.44-.65,1,0,2-1.25,3.06-1.92-.93-.76-1.75-1.83-2.82-2.23-2-.75-5.8-.78-6-1.69-1.19-5.85-5.61-4.15-9.14-4.52s-9.22.73-10.54-1.18c-3.73-5.38-8.67-2.93-13-3.93-2.65-.61-5.16-1.86-7.82-2.32-3.44-.6-8.53-2.27-10.13-.68-3.63,3.62-7.4,2.79-11.26,2.71s-6.89-6.49-4-8.14c5.27-3,3.19-7.65,4.34-11.54.51-1.73,1-3.47,1.65-5.76,5.23,5.52,8.88,11.32,16.42,11.39.56,0,1.48.27,1.61.64,2.43,6.72,9.89,4,14.57,7.64,5,3.81,13.8-.1,20.32,5.33,2.75,2.29,8.67,1,13.12.83.94,0,2.74-3.48,2.49-3.73-2-2.06-4.36-5.15-6.75-5.28-8.36-.48-10.39-10.45-18.23-11.23L76.24,139,75,140.25c-5.86-4.44-12-8.58-17.5-13.43-3.67-3.23-6.82-6.44-11.61-8.59-5.71-2.57-11-5.22-17.41-5-.33,0-.95-.37-1-.62-.73-6.22-5.58-4.36-9.3-4.91a54.34,54.34,0,0,1-6.68-1.85,31.13,31.13,0,0,0,3.25-4.36c.72-1.4.73-3.14,1.32-4.63a9.61,9.61,0,0,1,2.11-3.35c3.34-3.19,6.82-6.24,11.59-10.56,3.13-.42,7.27.19,7.21,7,0,.94,1,1.92,1.6,2.83,1,1.46,2.46,2.74,2.94,4.34A19,19,0,0,0,51.39,109c1.67,2.1,4.45,3.29,5.52,5.36,4,7.72,13.08,8.59,18.27,14.3,2.39,2.63,5,3.9,7.86,5.62,4.21,2.58,7.46,6.67,11.3,9.9,4.37,3.68,9,7.11,13.4,10.71,1.33,1.08,2.52,2.33,3.77,3.5.55-1.76,1.19-3.5,1.61-5.3a25.67,25.67,0,0,0,.36-3.63Zm0,127.45c-2.1.12-3.49.25-4.89.28-5.39.11-10.86.07-14.24-5-.75-1.13-.56-3.61.2-4.86,2.25-3.73,5.05-7.12,7.55-10.7,3.77-5.43,5.93-11.34,5.4-18.09a2.24,2.24,0,0,1,1.32-1.74c5-.38,3.91-4.25,4.22-7.27.43-4.22-.8-10.56,1.46-12.24,4.53-3.36,3.08-6.72,3.37-12.13l-9.51,7.49c-1,2.49-1.51,5.41-3.12,7.46-4.62,5.87-11.83,9.57-13.41,18-.53,2.85-3.39,5.37-5.47,7.81-1.71,2-3.9,3.59-5.77,5.47-2.87,2.87-6.9,5.37-8.2,8.86-2.28,6.1-7.66,11.32-6.15,18.69a1.81,1.81,0,0,1-.74,1.57c-4.48,1.64-3.14,5.53-3.46,8.75-.25,2.57-.39,5.16-.6,8.08h-9L52.1,292c-4.89-2.43-9.93-4.19-13.94-7.3-1.57-1.22-2.11-7.06-.9-8,5.8-4.68,12.35-8.41,18.64-12.47l.95,1.34,50.47-62.67a17.21,17.21,0,0,0-.06-3.65,23.7,23.7,0,0,0-1.51-4.21,22.68,22.68,0,0,1-2.93,2.88,14.91,14.91,0,0,1-3.56,1.55c-1.69.59-4.28.56-5,1.71-3.42,5.7-7.81,9.44-14.77,9.52-.7,0-2,.57-2,.93-.29,4.35-3.77,3.33-6.31,4a8.35,8.35,0,0,0-3.46,1.71q-4,3.63-7.62,7.6c-3.11,3.37-6.06,6.89-9.73,11.09H41.74l1-1.27c-1.59-1.89-3.12-3.84-4.79-5.66-2.31-2.54-1.11-7.26,1.06-9.79,4.63-5.4,10.61-3.67,16.23-4.16,2.21-.19,6.14-.09,6.32-.83,1.08-4.55,5.51-2.81,7.4-4.53,3.78-3.43,7.9-4.84,12.63-5.49.38-.05.61-1,1-1.44,3.08-3.86,5.83-8.05,11.49-8.67,1.32-.14,2.49-1.68,3.72-2.57-1.38-.77-2.77-2.2-4.15-2.2-10.18,0-20.37.31-30.55.61-1.58,0-4.08.06-4.56.94-2.31,4.27-6.21,3.25-9.69,3.4-5.9.25-11.94-.45-17.69.55-6.24,1.08-12.23,3.61-18.3,5.58-.47.15-.74.92-1.11,1.39l-5.22,6.68c0,11.51,0,24.94,0,38.37,0,1-.06,2.59.48,2.9,5.25,3,3.49,8.14,4.2,12.53.22,1.36.17,2.88.81,4,1.73,3.09,3.75,6,4.87,7.78l22.49,22.61c1.1.3,5.54.34,6.13,1.87,1.67,4.3,4.83,2.83,7.53,3.31,3,.52,6,.69,8.86,1.45s5.63,2.94,8.46,3c18.54.28,37.09.15,55.63.14,6.8,0,11.79-4.54,11.85-11.32.12-12.83,0-25.67-.14-38.5,0-1.4.1-3.54-.7-4.08-5.09-3.45-3.51-8.66-3.75-13.27-.37-7.12-.3-14.26-.44-21.39-.16-7.54-.92-8.13-8.75-6.7-.35,4.18.89,10.37-1.39,12.24-5.49,4.5-3,9.87-4,14.8a51.55,51.55,0,0,1-2.13,7.18c-.69,1.86-2.4,3.58-2.46,5.4C113.77,259.14,113.92,267.47,113.92,276.4Zm28.33-99.93a44.77,44.77,0,0,0-4.09-5.34c-2.82-2.76-4.48-7.11-9.48-7.07-4.43,0-7.88.42-11.2,4.8-3.9,5.15-4.94,11.67-.05,16.34,2.52,2.41,4.34,5.89,7.25,7.46,2,1.06,5.74.37,7.86-.92,2.63-1.61,4.06-6.21,6.6-6.75C145.07,183.7,143.78,180,142.24,176.48Z"/><path class="cls-2" d="M113.48,149.43a25.67,25.67,0,0,1-.36,3.63c-.43,1.79-1.06,3.53-1.61,5.3-1.25-1.17-2.44-2.43-3.77-3.5-4.45-3.59-9-7-13.4-10.71-3.84-3.24-7.09-7.33-11.3-9.9-2.81-1.72-5.47-3-7.86-5.62C70,122.9,60.9,122,56.91,114.31c-1.07-2.07-3.85-3.26-5.52-5.36a19,19,0,0,1-9.86-11.88c-.48-1.6-2-2.88-2.94-4.34C38,91.83,37,90.85,37,89.91c.07-6.79-4.08-7.4-7.21-7C25,87.24,21.53,90.29,18.19,93.48a9.61,9.61,0,0,0-2.11,3.35c-.59,1.48-.6,3.23-1.32,4.63a31.13,31.13,0,0,1-3.25,4.36,54.34,54.34,0,0,0,6.68,1.85c3.72.56,8.58-1.31,9.3,4.91,0,.25.65.63,1,.62,6.38-.21,11.7,2.45,17.41,5,4.79,2.15,7.95,5.36,11.61,8.59,5.5,4.85,11.63,9,17.5,13.43L76.24,139l.86,4.69c7.84.77,9.87,10.75,18.23,11.23,2.39.14,4.73,3.22,6.75,5.28.25.25-1.55,3.69-2.49,3.73-4.45.2-10.37,1.46-13.12-.83-6.52-5.43-15.35-1.52-20.32-5.33-4.68-3.6-12.15-.92-14.57-7.64-.13-.37-1.06-.63-1.61-.64-7.54-.07-11.19-5.87-16.42-11.39-.66,2.3-1.14,4-1.65,5.76-1.15,3.89.93,8.51-4.34,11.54-2.89,1.66.23,8.07,4,8.14s7.62.92,11.26-2.71c1.59-1.59,6.69.09,10.13.68,2.66.46,5.17,1.71,7.82,2.32,4.36,1,9.3-1.45,13,3.93,1.32,1.91,6.91.8,10.54,1.18s7.95-1.33,9.14,4.52c.19.91,4,.94,6,1.69,1.07.4,1.89,1.46,2.82,2.23-1,.67-2,1.88-3.06,1.92-8.14.3-16.31.11-24.44.65-2.87.19-5.59,2.13-8.44,3.06a21.42,21.42,0,0,1-5.83,1.19c-8.55.27-17.13.14-25.66.62-3.47.2-6.88,1.57-11.31,2.65-3.22-5.86-10.78-1.38-16.83-3.92-.11-1.64-.33-3.43-.33-5.21q0-55.64.13-111.28c0-3.62-1.28-7.9,3.57-10.11.75-.34,1.14-2.71.83-3.93a14.3,14.3,0,0,1,5.71-14.89c6-3.67,5.92-11,11.4-14.15,1.53-.88,3.3-1.35,4.91-2.11,1.17-.55,2.74-1,3.31-1.94,3.05-5.19,6.92-8.64,13.4-8.88,4.8-.18,10.25,1.25,13.81-4.09.56-.84,3.08-.51,4.69-.51q88,0,176.09.13c2.37,0,4.65,2.2,7.12,2.86,3.26.86,6.72,1,10,1.86,2,.54,3.68,2.09,5.63,2.87,2.7,1.08,5.52,1.87,7.58,3.3l19.88,20.15c2.71,4.11,4.84,7.05,6.62,10.19.65,1.14.58,2.74.64,4.13.29,6.92.73,13.84.72,20.77q-.11,90.18-.5,180.36c0,4.92,2.21,11-4.36,14.42-.83.43-.38,3.1-.82,4.64a8.57,8.57,0,0,1-1.8,3.5c-2.89,3-6,5.9-9,8.86-2.05,2-4,4.18-6.1,6.17a33.63,33.63,0,0,1-5.63,4.39c-3,2.06-5.69,4.86-9,6-3.54,1.2-7.67.49-11.43,1.22-2.93.57-5.65,2.18-8.53,3.14a17,17,0,0,1-5.18,1c-23.64.07-47.29.18-70.92-.13a11.3,11.3,0,0,1-7.82-4c-2.64-3.54-7.76-5.55-7.4-11.3.09-1.49-1.86-3.06-2.75-4.67-.7-1.27-1.65-2.6-1.74-4-.32-4.88,0-9.82-.58-14.65-.34-2.71-2.16-5.2-3.05-7.88a20.61,20.61,0,0,1-1.15-5.81c-.29-9.37-.34-18.74-.65-28.11-.06-1.71-.51-4.55-1.48-4.89-5.67-2-3.73-6.27-4-10,3.62-.63,9.29,3.83,10.52,7,1.6,4.13,3,9.41,6.2,11.55s2.71,4.36,3.6,6.78c.65,1.75,2,3.25,3,4.85.51.77,1.38,1.43,1.55,2.26,1.89,8.84,3.67,17.7,5.49,26.55a16.13,16.13,0,0,0,1.1,1.86c1.7-1.1,3.44-2.18,5.13-3.33.61-.42,1.25-1.53,1.64-1.43,6.58,1.67,7.48-5.65,11.81-7.54.33-.15.18-2.65-.46-3.51a14.82,14.82,0,0,0-4.41-4c-4.49-2.54-9.16-4.77-13.84-7.17-2.16-6-3.94-12.36-6.71-18.21-1.4-3-4.77-4.93-6.93-7.6-1.05-1.31-1.23-3.28-2-4.83s-2.36-2.76-2.76-4.33a83.91,83.91,0,0,1-1.38-9.29c1.24.32,2.66.37,3.69,1,1.77,1.12,3.22,2.74,5,3.92,3.08,2.09,6.47,3.77,9.39,6.06,6.2,4.86,10.52,11.89,19,14.23,2.95.82,4.79,5.41,7.29,8.14,2.08,2.27,4.07,4.9,6.67,6.36,4.37,2.46,9.19,4.11,13.17,5.83,1.21,4.46-.41,9.11,5,10.28.34.07.74,1.56.54,2.21-1.69,5.62,4.76,7.57,5.57,12.1a12.1,12.1,0,0,0,4.91-.68c1.91-1,3.42-2.76,4.88-4,2.29-3.43,3.8-8.43,6.81-9.62,6.06-2.39,3.26-6.28,3.74-10.39-2.73-.16-5.13-.18-7.49-.48-3.37-.42-7.41,1.05-9.4-3.61-.37-.85-3-1.12-4.54-1-7.16.45-11.46-3.22-14.37-9.29a3.35,3.35,0,0,0-2.29-1.52c-6.08-.75-9.11-5.77-13.52-8.82-5.54-3.83-8.9-10.88-16.79-11.77-2.39-.27-4.42-3.7-6.88-5.45-1.55-1.66-3.14-3.29-4.63-5-.7-.8-1.95-2.11-1.72-2.55.52-1,1.8-2.3,2.78-2.3,5.08,0,11.82-1.62,14.91,1,6.49,5.44,13.5,3.42,20.26,4.66a6.19,6.19,0,0,1,2.83,1.84c4.27,4.22,8.27,8.75,12.83,12.63,1.38,1.17,4.24.61,5.87.79l5.82-20.9c-9.2,0-18.32.11-27.44-.06-3-.05-6.52.93-8.19-3.42-.39-1-3.64-1-5.59-1.31-4.86-.86-10.59,1.72-14.2-4.3-.67-1.12-4.23-.48-6.45-.72-2.66-.28-5.32-.64-8-1l-.16-2.23c2.27-.49,4.51-1.09,6.8-1.44,5.16-.79,11.08,1.49,15.05-4.12.53-.75,2.7-.43,4.11-.46,6.52-.13,13.05,0,19.56-.38,4.26-.26,9.7,1.81,11.66-4.62.12-.39,1-.77,1.57-.78,8.55-.12,17.1-.18,25.66-.23.38,0,1,.14,1.1.39,5.07,10.17,14.27,3,21.59,6.48,0-8.85.14-16.33-.16-23.79,0-1.12-2.16-3.06-3.33-3.06-4.61,0-9-1.72-13.29,3.65-3,3.79-10.13,4.6-15.6,6.06-3.53.94-7.72-.67-10.18,3.74-.48.85-3,.72-4.61.76-7.54.19-15.09.07-22.61.47-4.59.25-9.25-.8-13.42,3.64-1.91,2-7.36.8-11.21.93-3.46.12-6.93.15-10.39,0a2.91,2.91,0,0,1-2.24-1.36,3,3,0,0,1,.63-2.67,22.22,22.22,0,0,1,5.64-4.32c5-2.26,10.31-4,15.43-6.14a19.33,19.33,0,0,0,3.52-2.41,17,17,0,0,1,3-2.14c1.09-.45,3,0,3.5-.65,4.32-5.92,11.81-2.77,16.36-5.62,4-2.52,7.37-5.24,12.77-4.86-.63-4.12,1.77-8.13-3.8-10.64-1.79-.8-1.78-5.6-3.11-10.46-3.54,4.19-5.69,7.4-8.49,9.88-4.41,3.92-9.25,7.34-13.89,11-.71.56-1.25,1.33-1.94,1.92-1.64,1.38-3.28,2.77-5,4-1.54,1.14-3.16,2.16-4.78,3.18a9.59,9.59,0,0,1-2.93,1.53c-3.3.67-7.22-.49-8.82,4.42-.25.76-5.41-.07-8.3-.17.55-2.63.46-5.68,1.81-7.81,2-3.22,5.06-5.8,7.69-8.64,1.52-1.65,3.08-3.26,5.74-6,.62-4.32,4.46-8.28,9.2-12.1,2.76-2.23,3.93-6.35,6.08-9.44,3.46-4.94,7.09-9.77,10.79-14.54.51-.65,1.78-.83,2.73-1,3.18-.53,7.09.45,8.07-4.35.09-.42,1.91-.31,2.75-.77a94.84,94.84,0,0,0,10.4-6.18c.69-.51.42-4.11-.18-4.35-6.36-2.5-8.75-10.54-16.5-11.32-2.38-.24-4.49-3.16-6.72-4.86l-2.19,1.15c-1.64,9.15-3,18.36-5.09,27.4-.59,2.57-2.85,5.22-5.07,6.87-5.1,3.81-8.69,7.94-9.87,14.67-.47,2.66-5.07,4.54-7.69,6.89-2.31,2.06-6.32,4.21-6.4,6.43-.3,8.41-9.23,10.69-11.61,17.85-.84,2.52-4.21,5.3-4.84,9-.09.54-1.51,1.41-1.7,1.27-.87-.63-2.28-1.71-2.15-2.36,1.27-6.29-3.12-13.41,3.55-19.16,1.9-1.63.9-6.57,1.32-10,.38-3.17-1.11-7,3.59-8.71,1-.35,1.47-3.86,1-5.62-1.6-6.38,3.62-9.67,6.18-14,1.79-3,5.27-5,7.92-7.4L162,77.29H143.2c1.59,4.47,2.38,8.2,4.18,11.35,2,3.51,1.4,11.19-1,14.38-1.5,2-1.57,5.1-2.22,7.72C143,115.45,147,121.94,139,124.47c-1,.32-.77,4.89-1,7.5a68.63,68.63,0,0,0-.3,7.93c.15,3.9-2.58,4.63-5.19,4.09a5.73,5.73,0,0,1-3.51-4.15c-.49-10.17-.34-20.38-.84-30.55-.12-2.49-1.93-4.88-2.83-7.37A17,17,0,0,1,124,96.82c-.25-9.78-.48-19.56-.35-29.34.06-4.16.44-7.88,3.18-12.13,2.88-4.47,1.52-11.67,2.1-18.72-6.35,1-11.7-2-16.74,3.39-1.88,2-7,.86-10.55,1.47-1.31.22-2.46,1.37-3.68,2.1.7,1,1.4,2.05,2.12,3.07s1.91,1.94,2.14,3.06c.67,3.32-.72,7.5,4.42,8.65.48.11.26,2.33.79,3.35,1.24,2.39,2.73,4.65,4.12,7l2.19-.73c0,5.06-.19,10.13.06,15.18.19,3.85-1,8.21,3.55,10.9.89.52.8,3,.84,4.6.19,7.95.12,15.9.46,23.84a27.06,27.06,0,0,0,3.26,12.26c2.67,5,1.22,12.2,1.62,19.46L114,149c0-3.41,0-6.83,0-10.48l-5.36-1.24c-.69-3.1-.77-7.85-2-8.17-4.39-1.14-3.38-4.35-4.1-7a6.78,6.78,0,0,0-1.51-3c-4.36-4.3-8.52-8.57-8-15.49.27-3.43.6-7.13-.39-10.3C91.53,89.78,89,86.7,86.9,83.64c-.27-.39-3.07.22-3.1.55-.52,4.63-4.22,3.58-6.93,3.88-4.38.48-5.54,3.83-5.06,6.91.42,2.67,2.43,6.54,4.57,7.22,6.72,2.11,11.07,5.59,12,12.78a5.53,5.53,0,0,0,1.29,2.63c3.41,4,8.29,7.14,8.11,13.37,0,.56.18,1.47.55,1.65,6.94,3.39,3.12,13.07,9.75,16.81Z"/><path class="cls-2" d="M113.92,276.4c0-8.94-.15-17.26.12-25.57.06-1.82,1.77-3.54,2.46-5.4a51.55,51.55,0,0,0,2.13-7.18c1-4.94-1.46-10.3,4-14.8,2.29-1.88,1-8.06,1.39-12.24,7.82-1.43,8.59-.84,8.75,6.7.15,7.13.08,14.27.44,21.39.24,4.61-1.35,9.83,3.75,13.27.8.54.69,2.68.7,4.08.1,12.83.25,25.67.14,38.5-.06,6.78-5.06,11.32-11.85,11.32-18.55,0-37.09.13-55.63-.14-2.83,0-5.57-2.22-8.46-3S56,302.41,53,301.89c-2.7-.47-5.87,1-7.53-3.31-.59-1.53-5-1.57-6.13-1.87L16.84,274.1c-1.12-1.75-3.14-4.68-4.87-7.78-.63-1.14-.59-2.66-.81-4-.7-4.39,1.06-9.57-4.2-12.53-.54-.3-.48-1.9-.48-2.9,0-13.43,0-26.86,0-38.37l5.22-6.68c.37-.47.64-1.24,1.11-1.39,6.07-2,12.07-4.51,18.3-5.58,5.76-1,11.79-.3,17.69-.55,3.49-.15,7.38.87,9.69-3.4.48-.89,3-.9,4.56-.94,10.18-.29,20.37-.58,30.55-.61,1.38,0,2.76,1.43,4.15,2.2-1.24.89-2.4,2.43-3.72,2.57-5.66.62-8.41,4.81-11.49,8.67-.37.46-.6,1.39-1,1.44-4.74.65-8.85,2.06-12.63,5.49-1.89,1.72-6.33,0-7.4,4.53-.17.74-4.11.64-6.32.83-5.62.49-11.6-1.23-16.23,4.16-2.17,2.53-3.37,7.25-1.06,9.79,1.66,1.83,3.2,3.77,4.79,5.66l-1,1.27h8.65c3.67-4.2,6.63-7.72,9.73-11.09q3.64-4,7.62-7.6a8.35,8.35,0,0,1,3.46-1.71c2.55-.66,6,.36,6.31-4,0-.37,1.3-.93,2-.93,7-.07,11.34-3.81,14.77-9.52.69-1.15,3.28-1.11,5-1.71a14.91,14.91,0,0,0,3.56-1.55,22.68,22.68,0,0,0,2.93-2.88,23.7,23.7,0,0,1,1.51,4.21,17.21,17.21,0,0,1,.06,3.65L56.85,265.54l-.95-1.34c-6.29,4.07-12.85,7.8-18.64,12.47-1.21,1-.67,6.81.9,8,4,3.11,9,4.87,13.94,7.3l.8,4.79h9c.21-2.92.35-5.5.6-8.08.32-3.22-1-7.11,3.46-8.75a1.81,1.81,0,0,0,.74-1.57c-1.52-7.37,3.87-12.6,6.15-18.69,1.3-3.49,5.33-6,8.2-8.86,1.87-1.88,4.06-3.47,5.77-5.47,2.08-2.43,4.94-5,5.47-7.81,1.58-8.43,8.8-12.14,13.41-18,1.61-2,2.12-5,3.12-7.46l9.51-7.49c-.29,5.4,1.16,8.77-3.37,12.13-2.26,1.68-1,8-1.46,12.24-.31,3,.82,6.89-4.22,7.27a2.24,2.24,0,0,0-1.32,1.74c.54,6.75-1.63,12.66-5.4,18.09-2.49,3.59-5.29,7-7.55,10.7-.76,1.25-.95,3.73-.2,4.86,3.38,5.11,8.85,5.15,14.24,5C110.42,276.65,111.82,276.52,113.92,276.4Z"/><path class="cls-2" d="M142.24,176.48c1.53,3.5,2.83,7.23-3.11,8.5-2.54.55-4,5.15-6.6,6.75-2.12,1.29-5.9,2-7.86.92-2.91-1.56-4.73-5-7.25-7.46-4.88-4.66-3.85-11.19.05-16.34,3.32-4.38,6.77-4.76,11.2-4.8,5,0,6.65,4.31,9.48,7.07A44.77,44.77,0,0,1,142.24,176.48Z"/><path class="cls-1" d="M113.48,149.43h-5.36c-6.63-3.74-2.82-13.43-9.75-16.81-.37-.18-.57-1.09-.55-1.65.18-6.23-4.7-9.34-8.11-13.37A5.53,5.53,0,0,1,88.43,115c-1-7.19-5.33-10.67-12-12.78-2.14-.67-4.15-4.55-4.57-7.22-.48-3.07.68-6.43,5.06-6.91,2.71-.3,6.4.75,6.93-3.88,0-.33,2.83-.94,3.1-.55,2.14,3.07,4.63,6.14,5.72,9.62,1,3.17.66,6.87.39,10.3-.54,6.92,3.61,11.18,8,15.49a6.78,6.78,0,0,1,1.51,3c.72,2.67-.28,5.89,4.1,7,1.23.32,1.31,5.07,2,8.17l5.36,1.24c0,3.65,0,7.07,0,10.48Z"/><text class="cls-3" transform="translate(311.5 257.75) scale(0.95 1)"><tspan class="cls-4">H</tspan><tspan class="cls-1" x="150.45" y="0">endeGrant</tspan><tspan class="cls-5" x="1241.93" y="0"> </tspan></text></g></g></svg>